<?xml version="1.0" encoding="UTF-8"?>
<svg id="ICON" xmlns="http://www.w3.org/2000/svg" viewBox="0 0 827 598">
  <defs>
    <style>
      .cls-1 {
        font-family: ArialNarrow, Arial;
      }

      .cls-1, .cls-2, .cls-3 {
        fill: #1b396d;
      }

      .cls-1, .cls-3 {
        font-size: 90.28px;
      }

      .cls-2 {
        stroke-width: 0px;
      }

      .cls-3 {
        font-family: Arial-BoldMT, Arial;
        font-weight: 700;
      }
    </style>
  </defs>
  <g>
    <polygon class="cls-2" points="196.94 329.04 199.22 326.94 199.22 324.9 192.85 324.9 196.94 329.04"/>
    <polygon class="cls-2" points="199.22 330.94 199.22 328.04 197.57 329.56 199.22 330.94"/>
    <polygon class="cls-2" points="192.32 333.27 196.34 329.59 192.31 325.42 188.09 329.39 192.32 333.27"/>
    <polygon class="cls-2" points="173.66 333.26 177.34 329.58 172.87 325.41 169.11 329.12 173.66 333.26"/>
    <polygon class="cls-2" points="154.97 303.46 154.97 306.56 156.52 305.01 154.97 303.46"/>
    <polygon class="cls-2" points="154.09 314.53 156.29 312.33 154.09 310.13 154.09 314.53"/>
    <polygon class="cls-2" points="153.01 323.47 156.01 320.47 153.01 317.46 153.01 323.47"/>
    <polygon class="cls-2" points="168.5 328.56 172.33 324.9 164.54 324.9 168.5 328.56"/>
    <polygon class="cls-2" points="162.31 333.32 167.84 329.06 163.9 325.41 157.98 330.43 162.31 333.32"/>
    <polygon class="cls-2" points="187.48 328.83 191.77 324.9 183.19 324.9 187.48 328.83"/>
    <polygon class="cls-2" points="177.92 329 182.02 324.9 173.42 324.9 177.92 329"/>
    <polygon class="cls-2" points="178 330.07 174.25 333.82 181.78 333.82 178 330.07"/>
    <polygon class="cls-2" points="146.16 329.58 141.07 333.82 151.16 333.82 146.16 329.58"/>
    <polygon class="cls-2" points="168.45 329.62 162.99 333.82 173.07 333.82 168.45 329.62"/>
    <polygon class="cls-2" points="126.26 329.93 122.37 333.82 130.19 333.82 126.26 329.93"/>
    <polygon class="cls-2" points="130.72 333.3 134.89 329.28 130.73 325.46 126.83 329.35 130.72 333.3"/>
    <polygon class="cls-2" points="151.83 333.32 156.48 330.41 150.2 326.22 146.79 329.06 151.83 333.32"/>
    <polygon class="cls-2" points="120.77 333.45 120.77 333.82 121.19 333.82 120.77 333.45"/>
    <polygon class="cls-2" points="140.45 333.28 145.53 329.05 141.24 325.42 136.15 329.34 140.45 333.28"/>
    <polygon class="cls-2" points="125.62 329.42 120.77 325.5 120.77 332.36 121.78 333.26 125.62 329.42"/>
    <polygon class="cls-2" points="135.5 329.84 131.26 333.82 139.84 333.82 135.5 329.84"/>
    <polygon class="cls-2" points="157.3 319.61 160.3 316.61 154.29 316.61 157.3 319.61"/>
    <polygon class="cls-2" points="154.22 324.09 159.9 324.09 157.06 321.25 154.22 324.09"/>
    <polygon class="cls-2" points="154.98 314.98 159.14 314.98 157.06 312.91 154.98 314.98"/>
    <polygon class="cls-2" points="157.23 311.7 159.43 309.5 155.03 309.5 157.23 311.7"/>
    <polygon class="cls-2" points="161.11 323.28 161.11 317.61 158.27 320.44 161.11 323.28"/>
    <polygon class="cls-2" points="160.03 314.39 160.03 310.23 157.95 312.31 160.03 314.39"/>
    <polygon class="cls-2" points="182.61 325.46 178.58 329.49 182.59 333.82 182.59 333.82 186.82 329.33 182.61 325.46"/>
    <polygon class="cls-2" points="158.52 306.88 157.06 305.41 155.6 306.88 158.52 306.88"/>
    <polygon class="cls-2" points="126.2 328.84 130.14 324.9 121.32 324.9 126.2 328.84"/>
    <polygon class="cls-2" points="135.54 328.78 140.59 324.9 131.31 324.9 135.54 328.78"/>
    <polygon class="cls-2" points="150.14 325.21 157.24 329.94 163.38 324.9 162.31 324.9 162.33 325.31 151.79 325.31 151.81 324.9 141.88 324.9 146.16 328.53 150.14 325.21"/>
    <polygon class="cls-2" points="154.97 300.07 156.52 298.52 154.97 296.97 154.97 300.07"/>
    <polygon class="cls-2" points="157.06 298.93 155.6 300.39 158.52 300.39 157.06 298.93"/>
    <polygon class="cls-2" points="159.15 297.05 157.69 298.51 159.15 299.97 159.15 297.05"/>
    <polygon class="cls-2" points="159.15 306.46 159.15 303.53 157.69 305 159.15 306.46"/>
    <polygon class="cls-2" points="158.73 303.02 155.63 303.02 157.18 304.57 158.73 303.02"/>
    <polygon class="cls-2" points="158.27 291.97 157.42 292.82 158.27 293.67 158.27 291.97"/>
    <polygon class="cls-2" points="157.13 292.57 158.03 291.67 156.23 291.67 157.13 292.57"/>
    <polygon class="cls-2" points="157.18 298.08 158.73 296.53 155.63 296.53 157.18 298.08"/>
    <polygon class="cls-2" points="156.21 293.91 157.91 293.91 157.06 293.06 156.21 293.91"/>
    <polygon class="cls-2" points="155.85 293.72 156.74 292.82 155.85 291.92 155.85 293.72"/>
    <path class="cls-2" d="M120.77,324.09h3.57v-5.54c-1.32.56-2.53,1.02-3.57,1.39v4.15Z"/>
    <polygon class="cls-2" points="295.73 303.02 292.63 303.02 294.18 304.57 295.73 303.02"/>
    <polygon class="cls-2" points="295.52 306.88 294.05 305.41 292.59 306.88 295.52 306.88"/>
    <polygon class="cls-2" points="296.15 306.46 296.15 303.53 294.68 305 296.15 306.46"/>
    <polygon class="cls-2" points="291.09 314.53 293.29 312.33 291.09 310.13 291.09 314.53"/>
    <polygon class="cls-2" points="291.96 303.46 291.96 306.56 293.51 305.01 291.96 303.46"/>
    <polygon class="cls-2" points="294.05 298.93 292.59 300.39 295.52 300.39 294.05 298.93"/>
    <polygon class="cls-2" points="294.18 298.08 295.73 296.53 292.63 296.53 294.18 298.08"/>
    <polygon class="cls-2" points="296.15 297.05 294.68 298.51 296.15 299.97 296.15 297.05"/>
    <polygon class="cls-2" points="290 323.47 293 320.47 290 317.46 290 323.47"/>
    <polygon class="cls-2" points="291.96 300.07 293.51 298.52 291.96 296.97 291.96 300.07"/>
    <polygon class="cls-2" points="294.48 334.63 295.06 336.06 295.64 334.63 294.48 334.63"/>
    <path class="cls-2" d="M286.35,314.57v-14.93c-1.26,1.76-2.63,3.39-4.06,4.91l4.06,10.02Z"/>
    <path class="cls-2" d="M299.27,324.09h.65l5.19-12.8v-7.48c-2.92-3.22-5.44-6.9-7.24-11.12l1.4,31.39Z"/>
    <polygon class="cls-2" points="294.23 329.94 299.2 325.86 299.59 324.9 299.31 324.9 299.32 325.31 290.7 325.31 291.97 328.43 294.23 329.94"/>
    <path class="cls-2" d="M706.23,92.67V26.06h-362.66l-48.18,135.14L246.75,26.06h-125.98v293.03c8.14-2.93,25.53-11.03,32.55-28.29l.09-1.96h.04c-.86-.93-1.35-2.18-1.27-3.52.17-2.68,2.57-4.71,5.37-4.54,2.8.17,4.93,2.49,4.76,5.17-.08,1.29-.68,2.43-1.59,3.25l.04.99c6.58,18.69,27.09,27.53,38.46,31.09V99.65l82.73,204.08c3.35-3.59,6.3-7.87,8.36-12.93l.09-1.96h.04c-.86-.93-1.35-2.18-1.27-3.52.17-2.68,2.57-4.71,5.37-4.54,2.8.17,4.93,2.49,4.76,5.17-.08,1.29-.68,2.43-1.59,3.25l.04.99c2.1,5.97,5.62,10.93,9.82,15.04l83.44-205.57v236.41h3.27v-35.94h3.24v-13.78h2.43v-8.11h3.24v-4.05h1.62v-9.73h1.22v-10.13h.81v10.54h1.62v8.92h1.62v4.05h2.43v1.62h1.62v7.3h1.62v12.16h3.24v37.15h4.46v-41.61h11.35l11.35-11.35v52.96h8.11v-2.7l3.24-1.62v-3.24l4.05-2.43v-21.08h-4.05v-5.67h2.43v-.81h1.62v-6.48h11.35v-4.05h-4.86v-17.02h-2.43v-47.83l5.67-6.48v-4.05l-4.05-3.24v-9.73l-5.67-5.67v-8.11l2.43-2.43v-15.4h-1.62l-.81-1.62v-4.86l1.62-.81h2.43v-3.24l-4.05-3.24v-3.24h2.43l.81-.81s-3.24-.81-1.62-4.05c1.62-3.24,4.05-4.05,4.05-9.73,0,0,4.05,5.67,3.24,13.78l.81.81h1.62v3.65l-3.04,3.04v3.45l1.82.81v21.08l2.43,2.43v7.3l4.05,4.05h2.43v-3.24l-3.24-2.43v-7.3l-2.43-.81-.81-.81,1.62-.81,1.62-1.62-4.05-4.05,6.48,2.43-2.43-7.3,4.05,5.67h1.62l1.62-8.11,1.62,8.11,4.86-5.67-.81,6.48,5.67-2.43-3.24,5.67,3.24,1.62-4.05,1.62v7.3l-4.05,2.43v4.05h7.3l5.67,6.48v8.11h2.43l4.05-5.67,13.78,10.54-4.05,6.48,1.62,2.43-4.05,5.67-3.24-1.62-6.48,8.92-4.05-3.24v14.59l-3.24,2.43v12.97l-2.43,2.43v23.51h7.3v5.67h2.43l2.84,2.84v4.46h-5.27v21.89h2.43l3.24,2.43v3.24l2.43,1.62v2.3h10.13v-40.8h2.43v-6.48h1.62v-8.11l3.24-3.24v-8.11l1.62-1.62v-15.4h1.62v15.4l1.62,1.62v8.11l4.05,4.05v6.48h1.62v7.3h2.43v40.8h4.86v-36.75h2.43l6.48-14.59,6.48,14.59h1.62v36.75h2.72v-126.66h120.11v-62.59h-120.11v-54.13h140.62Z"/>
    <polygon class="cls-2" points="292.84 293.72 293.74 292.82 292.84 291.92 292.84 293.72"/>
    <path class="cls-2" d="M287.16,298.61v17.96l1.81,4.47,1.24-28c-.93,1.98-1.99,3.84-3.16,5.57h.1Z"/>
    <polygon class="cls-2" points="292.51 329.77 292.92 330.76 293.48 330.41 292.51 329.77"/>
    <polygon class="cls-2" points="296.84 331.68 298.59 327.36 294.97 330.43 296.84 331.68"/>
    <path class="cls-2" d="M305.92,304.69v4.61l1.33-3.27c-.45-.44-.89-.88-1.33-1.34Z"/>
    <polygon class="cls-2" points="296.53 332.44 294.22 330.9 293.22 331.52 294.16 333.82 295.97 333.82 296.53 332.44"/>
    <path class="cls-2" d="M125.16,324.09h7.76v-9.83c-2.76,1.63-5.42,2.94-7.76,3.95v5.88Z"/>
    <path class="cls-2" d="M162.27,324.09h5.84v-20.28c-2.92-3.22-5.44-6.9-7.24-11.12l1.4,31.39Z"/>
    <path class="cls-2" d="M150.17,298.61v25.48h1.68l1.38-31.05c-.93,1.98-1.99,3.84-3.16,5.57h.1Z"/>
    <path class="cls-2" d="M133.72,324.09h7.87v-16.02c-2.58,2.22-5.26,4.11-7.87,5.71v10.31Z"/>
    <path class="cls-2" d="M142.21,307.53h.2v16.56h6.95v-24.45c-2.14,2.99-4.58,5.61-7.14,7.89Z"/>
    <polygon class="cls-2" points="294.13 292.57 295.02 291.67 293.23 291.67 294.13 292.57"/>
    <path class="cls-2" d="M195.16,324.09h4.06v-1.99c-1.25-.39-2.62-.84-4.06-1.37v3.35Z"/>
    <path class="cls-2" d="M177.38,324.09h8.11v-7.51c-2.7-1.36-5.44-2.95-8.11-4.78v12.29Z"/>
    <polygon class="cls-2" points="199.22 331.99 196.97 330.11 192.92 333.82 199.22 333.82 199.22 331.99"/>
    <path class="cls-2" d="M186.3,324.09h8.05v-3.65h0c-2.51-.93-5.24-2.08-8.05-3.46v7.1Z"/>
    <path class="cls-2" d="M168.93,304.69v19.41h7.64v-12.85h0c-2.69-1.92-5.29-4.09-7.65-6.55Z"/>
    <polygon class="cls-2" points="294.23 311.7 296.43 309.5 292.03 309.5 294.23 311.7"/>
    <polygon class="cls-2" points="295.27 291.97 294.42 292.82 295.27 293.67 295.27 291.97"/>
    <polygon class="cls-2" points="187.43 329.89 183.42 333.82 191.72 333.82 187.43 329.89"/>
    <polygon class="cls-2" points="297.02 314.39 297.02 310.23 294.94 312.31 297.02 314.39"/>
    <polygon class="cls-2" points="293.2 293.91 294.9 293.91 294.05 293.06 293.2 293.91"/>
    <polygon class="cls-2" points="298.11 323.28 298.11 317.61 295.27 320.44 298.11 323.28"/>
    <polygon class="cls-2" points="291.22 324.09 296.89 324.09 294.05 321.25 291.22 324.09"/>
    <polygon class="cls-2" points="294.29 319.61 297.3 316.61 291.29 316.61 294.29 319.61"/>
    <polygon class="cls-2" points="291.98 314.98 296.13 314.98 294.05 312.91 291.98 314.98"/>
  </g>
  <text class="cls-3" transform="translate(32.34 445.26)"><tspan x="0" y="0">METRO FUNDING</tspan></text>
  <text class="cls-1" transform="translate(335.39 544.26)"><tspan x="0" y="0">NYC</tspan></text>
</svg>